<?xml version="1.0" encoding="UTF-8" standalone="no"?>
<svg
   width="22"
   height="22"
   version="1.1"
   id="svg9"
   sodipodi:docname="md-code.svg"
   inkscape:version="1.2.2 (b0a8486541, 2022-12-01)"
   xmlns:inkscape="http://www.inkscape.org/namespaces/inkscape"
   xmlns:sodipodi="http://sodipodi.sourceforge.net/DTD/sodipodi-0.dtd"
   xmlns="http://www.w3.org/2000/svg"
   xmlns:svg="http://www.w3.org/2000/svg">
  <sodipodi:namedview
     id="namedview11"
     pagecolor="#ffffff"
     bordercolor="#000000"
     borderopacity="0.25"
     inkscape:showpageshadow="2"
     inkscape:pageopacity="0.0"
     inkscape:pagecheckerboard="0"
     inkscape:deskcolor="#d1d1d1"
     showgrid="false"
     inkscape:zoom="21.454545"
     inkscape:cx="9.904661"
     inkscape:cy="16.010593"
     inkscape:window-width="2560"
     inkscape:window-height="1367"
     inkscape:window-x="0"
     inkscape:window-y="0"
     inkscape:window-maximized="1"
     inkscape:current-layer="svg9" />
  <defs
     id="defs3">
    <style
       id="current-color-scheme"
       type="text/css">
   .ColorScheme-Text { color:#444444; } .ColorScheme-Highlight { color:#4285f4; } .ColorScheme-NeutralText { color:#ff9800; } .ColorScheme-PositiveText { color:#4caf50; } .ColorScheme-NegativeText { color:#f44336; }
  </style>
  </defs>
  <g
     transform="matrix(0.79151735,0,0,0.79151735,3,6.3357223)"
     id="g7">
    <path
       style="fill:currentColor"
       class="ColorScheme-Text"
       d="m 9.5,0 -4,15.754 1,0.246 4,-15.754 z M 4.2539,3 0,8 4.2539,13 6,12.291 2.3359,8 6,3.709 Z M 11.746,3 10,3.709 13.664,8 10,12.291 11.746,13 16,8 Z"
       id="path5" />
  </g>
  <g
     id="g192"
     transform="matrix(0.7214921,0,0,0.7214921,7.7603786,-2.3391324)">
    <g
       transform="translate(4,4)"
       id="g7-3">
      <path
         style="color:#444444;fill:currentColor"
         class="ColorScheme-Text"
         d="M 10,5 C 8.892,5 8,5.892 8,7 V 9.5 C 8,10.328 8.6716,11 9.5,11 10.328,11 11,10.328 11,9.5 11,8.6716 10.328,8 9.5,8 H 9 V 7 C 9,6.446 9.446,6 10,6 Z M 6,5 C 4.892,5 4,5.892 4,7 V 9.5 C 4,10.328 4.6716,11 5.5,11 6.3284,11 7,10.328 7,9.5 7,8.6716 6.3284,8 5.5,8 H 5 V 7 C 5,6.446 5.446,6 6,6 Z"
         id="path5-6" />
    </g>
  </g>
</svg>
