<?xml version="1.0" encoding="UTF-8" standalone="no"?>
<svg
   width="22"
   height="22"
   version="1.1"
   id="svg7"
   sodipodi:docname="md-task.svg"
   inkscape:version="1.2.2 (b0a8486541, 2022-12-01)"
   xmlns:inkscape="http://www.inkscape.org/namespaces/inkscape"
   xmlns:sodipodi="http://sodipodi.sourceforge.net/DTD/sodipodi-0.dtd"
   xmlns="http://www.w3.org/2000/svg"
   xmlns:svg="http://www.w3.org/2000/svg">
  <sodipodi:namedview
     id="namedview9"
     pagecolor="#ffffff"
     bordercolor="#000000"
     borderopacity="0.25"
     inkscape:showpageshadow="2"
     inkscape:pageopacity="0.0"
     inkscape:pagecheckerboard="0"
     inkscape:deskcolor="#d1d1d1"
     showgrid="false"
     inkscape:zoom="10.727273"
     inkscape:cx="11.04661"
     inkscape:cy="11.04661"
     inkscape:window-width="2560"
     inkscape:window-height="1367"
     inkscape:window-x="0"
     inkscape:window-y="0"
     inkscape:window-maximized="1"
     inkscape:current-layer="svg7" />
  <defs
     id="defs3">
    <style
       id="current-color-scheme"
       type="text/css">
   .ColorScheme-Text { color:#444444; } .ColorScheme-Highlight { color:#4285f4; } .ColorScheme-NeutralText { color:#ff9800; } .ColorScheme-PositiveText { color:#4caf50; } .ColorScheme-NegativeText { color:#f44336; }
  </style>
  </defs>
  <path
     style="fill:currentColor;stroke-width:0.815585"
     class="ColorScheme-Text"
     d="m 6.649683,4.475321 c -1.2070656,0 -2.174362,0.9672964 -2.174362,2.174362 v 8.700634 c 0,1.207065 0.9672964,2.174362 2.174362,2.174362 h 8.700634 c 1.207065,0 2.174362,-0.967297 2.174362,-2.174362 V 9.2286516 l -1.63117,1.6311694 v 4.055624 c 0,0.538286 -0.439778,0.978064 -0.978064,0.978064 H 7.0845554 c -0.5382861,0 -0.9780647,-0.439778 -0.9780647,-0.978064 V 7.0845554 c 0,-0.5382861 0.4397786,-0.9780647 0.9780647,-0.9780647 h 7.8308896 c 0.307644,0 0.58025,0.1459724 0.759832,0.3695619 0.290165,-0.2377386 0.655576,-0.3695047 1.033817,-0.3695619 0.277679,4.2e-5 0.547787,0.072062 0.786913,0.2038963 C 17.334134,5.2669267 16.44147,4.475321 15.350317,4.475321 Z M 16.709094,6.9220756 A 0.81558486,0.81558486 0 0 0 16.13245,7.1610165 L 11.089205,12.204263 9.2063503,9.695383 A 0.81558486,0.81558486 0 0 0 8.064213,9.53131 0.81558486,0.81558486 0 0 0 7.9001403,10.673447 l 2.4467547,3.26234 a 0.81566642,0.81566642 0 0 0 1.229749,0.08761 l 5.709094,-5.7090955 a 0.81558486,0.81558486 0 0 0 0,-1.1532877 0.81558486,0.81558486 0 0 0 -0.576644,-0.238941 z"
     id="path5" />
</svg>
